<?xml version="1.0" encoding="utf-8"?>
<!-- Generator: Adobe Illustrator 25.4.1, SVG Export Plug-In . SVG Version: 6.00 Build 0)  -->
<svg version="1.1" id="圖層_1" xmlns="http://www.w3.org/2000/svg" xmlns:xlink="http://www.w3.org/1999/xlink" x="0px" y="0px"
	 viewBox="0 0 500 500" style="enable-background:new 0 0 500 500;" xml:space="preserve">
<style type="text/css">
	.st0{fill:#F9E8D4;}
	.st1{fill:#F9F2ED;}
</style>
<g>
	<path class="st1" d="M251.61,6.04C273.72,6.02,516.59,250,492.25,250c24.34,0-218.51,243.96-240.64,243.96
		c-1.05,0-1.61-0.55-1.61-1.71c0,1.16-0.56,1.71-1.61,1.71C226.28,493.96-16.59,250,7.75,250C-16.59,250,226.26,6.04,248.39,6.04
		c1.05,0,1.61,0.55,1.61,1.71C250,6.59,250.56,6.04,251.61,6.04 M251.61-3.45c0,0-0.01,0-0.01,0c-0.54,0-1.08,0.04-1.6,0.11
		c-0.52-0.07-1.06-0.11-1.61-0.11c-4.32,0-9.54,1.92-22.18,11.47c-8,6.04-18.39,14.74-30.88,25.84
		c-23.07,20.5-52.45,48.47-82.73,78.75c-30.28,30.28-58.25,59.66-78.75,82.73c-11.1,12.49-19.79,22.88-25.83,30.88
		c-9.55,12.64-11.47,17.86-11.47,22.18c0,0.54,0.04,1.08,0.11,1.61c-0.07,0.53-0.11,1.06-0.11,1.61c0,4.32,1.92,9.54,11.47,22.18
		c6.04,8,14.74,18.39,25.84,30.88c20.5,23.07,48.47,52.45,78.76,82.73c30.28,30.28,59.66,58.25,82.73,78.75
		c12.49,11.1,22.88,19.79,30.88,25.84c12.64,9.55,17.86,11.47,22.18,11.47c0.55,0,1.08-0.04,1.61-0.11
		c0.52,0.07,1.06,0.11,1.61,0.11c4.32,0,9.54-1.92,22.18-11.47c8-6.04,18.39-14.74,30.88-25.84c23.07-20.5,52.45-48.47,82.73-78.75
		c30.28-30.28,58.25-59.66,78.75-82.73c11.1-12.49,19.79-22.88,25.83-30.88c9.55-12.64,11.46-17.86,11.46-22.18
		c0-0.54-0.04-1.08-0.11-1.61c0.07-0.53,0.11-1.06,0.11-1.61c0-4.32-1.92-9.54-11.46-22.18c-6.04-8-14.74-18.39-25.83-30.88
		c-20.5-23.07-48.47-52.45-78.75-82.73c-30.28-30.28-59.66-58.25-82.73-78.75c-12.49-11.1-22.88-19.79-30.88-25.84
		C261.15-1.53,255.93-3.45,251.61-3.45L251.61-3.45z"/>
</g>
</svg>
